<?xml version="1.0" encoding="UTF-8"?>
<!DOCTYPE svg PUBLIC "-//W3C//DTD SVG 1.1//EN" "http://www.w3.org/Graphics/SVG/1.1/DTD/svg11.dtd">
<svg xmlns="http://www.w3.org/2000/svg" version="1.1" width="68px" height="64px" style="shape-rendering:geometricPrecision; text-rendering:geometricPrecision; image-rendering:optimizeQuality; fill-rule:evenodd; clip-rule:evenodd" xmlns:xlink="http://www.w3.org/1999/xlink">
<g><path style="opacity:0.99" fill="#0bc781" d="M 60.5,39.5 C 58.9064,39.9195 57.4064,40.5862 56,41.5C 55.5,41.1667 55,40.8333 54.5,40.5C 55.9501,39.1502 56.6168,37.4835 56.5,35.5C 48.3169,35.0146 44.6502,38.6813 45.5,46.5C 47.1128,44.5395 48.1128,42.2061 48.5,39.5C 52.3903,36.3857 53.8903,37.0524 53,41.5C 54.5057,44.474 56.1724,44.8073 58,42.5C 58.7203,44.1124 58.5536,45.6124 57.5,47C 53.8158,47.9072 50.4824,49.4072 47.5,51.5C 46.8333,51.5 46.5,51.8333 46.5,52.5C 46.1667,52.5 45.8333,52.5 45.5,52.5C 43.7659,51.438 42.0992,51.438 40.5,52.5C 40.1667,52.5 39.8333,52.5 39.5,52.5C 40.4787,50.8546 41.812,49.5213 43.5,48.5C 43.1667,48.1667 42.8333,47.8333 42.5,47.5C 40.4514,48.8818 38.7847,50.5484 37.5,52.5C 26.1618,52.6665 14.8284,52.4999 3.5,52C 3,51.5 2.5,51 2,50.5C 1.33333,38.5 1.33333,26.5 2,14.5C 2.30762,13.6919 2.80762,13.0253 3.5,12.5C 18.3392,9.0262 33.3392,6.85953 48.5,6C 52.9929,9.15959 56.8263,12.9929 60,17.5C 60.4997,24.8258 60.6663,32.1591 60.5,39.5 Z"/></g>
<g><path style="opacity:1" fill="#f2fcf8" d="M 38.5,20.5 C 40.4563,26.412 41.1229,32.7453 40.5,39.5C 39.1266,39.6567 37.7932,39.49 36.5,39C 34.4569,35.7466 32.2902,32.5799 30,29.5C 29.5017,32.8168 29.335,36.1501 29.5,39.5C 28.1779,39.67 27.0113,39.3366 26,38.5C 25.5006,33.1771 25.334,27.8437 25.5,22.5C 26.8734,22.3433 28.2068,22.51 29.5,23C 31.6667,25.8333 33.8333,28.6667 36,31.5C 36.0263,27.517 36.8597,23.8503 38.5,20.5 Z"/></g>
<g><path style="opacity:1" fill="#f7fdfb" d="M 14.5,29.5 C 17.1589,29.9174 19.4922,30.9174 21.5,32.5C 19.1667,32.5 16.8333,32.5 14.5,32.5C 14.5,33.5 14.5,34.5 14.5,35.5C 17.0277,36.1657 19.6944,36.8324 22.5,37.5C 18.8927,38.4892 15.226,38.8226 11.5,38.5C 11.5,33.8333 11.5,29.1667 11.5,24.5C 15.5,24.1667 19.5,23.8333 23.5,23.5C 23.5,24.5 23.5,25.5 23.5,26.5C 20.5,26.5 17.5,26.5 14.5,26.5C 14.5,27.5 14.5,28.5 14.5,29.5 Z"/></g>
<g><path style="opacity:1" fill="#90e6c7" d="M 14.5,29.5 C 17.1667,29.5 19.8333,29.5 22.5,29.5C 22.7373,30.791 22.404,31.791 21.5,32.5C 19.4922,30.9174 17.1589,29.9174 14.5,29.5 Z"/></g>
<g><path style="opacity:1" fill="#aaecd4" d="M 14.5,35.5 C 17.5,35.5 20.5,35.5 23.5,35.5C 23.5,36.8333 23.5,38.1667 23.5,39.5C 19.2984,39.8168 15.2984,39.4834 11.5,38.5C 15.226,38.8226 18.8927,38.4892 22.5,37.5C 19.6944,36.8324 17.0277,36.1657 14.5,35.5 Z"/></g>
<g><path style="opacity:0.956" fill="#202419" d="M 60.5,39.5 C 61.8443,46.825 58.8443,50.825 51.5,51.5C 48.6811,57.0798 44.3477,59.0798 38.5,57.5C 37.6906,55.9291 37.3573,54.2624 37.5,52.5C 38.7847,50.5484 40.4514,48.8818 42.5,47.5C 42.8333,47.8333 43.1667,48.1667 43.5,48.5C 41.812,49.5213 40.4787,50.8546 39.5,52.5C 39.5,52.8333 39.5,53.1667 39.5,53.5C 39.5,53.8333 39.5,54.1667 39.5,54.5C 39.5,55.1667 39.8333,55.5 40.5,55.5C 40.5,56.1667 40.8333,56.5 41.5,56.5C 43.0269,56.573 44.0269,55.9063 44.5,54.5C 45.1667,54.5 45.5,54.1667 45.5,53.5C 46.1667,53.5 46.5,53.1667 46.5,52.5C 47.1667,52.5 47.5,52.1667 47.5,51.5C 50.4824,49.4072 53.8158,47.9072 57.5,47C 58.5536,45.6124 58.7203,44.1124 58,42.5C 56.1724,44.8073 54.5057,44.474 53,41.5C 53.8903,37.0524 52.3903,36.3857 48.5,39.5C 48.1128,42.2061 47.1128,44.5395 45.5,46.5C 44.6502,38.6813 48.3169,35.0146 56.5,35.5C 56.6168,37.4835 55.9501,39.1502 54.5,40.5C 55,40.8333 55.5,41.1667 56,41.5C 57.4064,40.5862 58.9064,39.9195 60.5,39.5 Z"/></g>
<g><path style="opacity:1" fill="#f7c047" d="M 45.5,52.5 C 45.5,52.8333 45.5,53.1667 45.5,53.5C 44.8333,53.5 44.5,53.8333 44.5,54.5C 44.0269,55.9063 43.0269,56.573 41.5,56.5C 40.8333,56.5 40.5,56.1667 40.5,55.5C 39.8333,55.5 39.5,55.1667 39.5,54.5C 39.5,54.1667 39.5,53.8333 39.5,53.5C 40.1667,53.5 40.5,53.1667 40.5,52.5C 42.0992,51.438 43.7659,51.438 45.5,52.5 Z"/></g>
</svg>
